<svg xmlns="http://www.w3.org/2000/svg" version="1.1" xmlns:xlink="http://www.w3.org/1999/xlink" xmlns:svgjs="http://svgjs.dev/svgjs" viewBox="0 0 800 800"><defs><linearGradient x1="50%" y1="0%" x2="50%" y2="100%" id="ffflurry-grad" gradientTransform="rotate(270)"><stop stop-color="	hsl(0, 0%, 0%)" stop-opacity="1" offset="0%"></stop><stop stop-color="hsl(240, 4%, 11%)" stop-opacity="1" offset="45%"></stop><stop stop-color="hsl(214, 41%, 97%)" stop-opacity="1" offset="100%"></stop></linearGradient></defs><rect width="100%" height="100%" fill="	hsl(0, 0%, 0%)"></rect><g fill="url(#ffflurry-grad)"><rect width="270" height="1" x="178" y="352.5" rx="0.5" transform="rotate(144, 313, 353)" opacity="0.31"></rect><rect width="424" height="1" x="226" y="255.5" rx="0.5" transform="rotate(144, 438, 256)" opacity="0.11"></rect><rect width="163" height="1" x="441.5" y="401.5" rx="0.5" transform="rotate(144, 523, 402)" opacity="0.45"></rect><rect width="222" height="1" x="536" y="666.5" rx="0.5" transform="rotate(144, 647, 667)" opacity="0.48"></rect><rect width="358" height="1" x="540" y="188.5" rx="0.5" transform="rotate(144, 719, 189)" opacity="0.72"></rect><rect width="504" height="1" x="-115" y="419.5" rx="0.5" transform="rotate(144, 137, 420)" opacity="0.15"></rect><rect width="553" height="1" x="89.5" y="117.5" rx="0.5" transform="rotate(144, 366, 118)" opacity="0.74"></rect><rect width="195" height="1" x="316.5" y="676.5" rx="0.5" transform="rotate(144, 414, 677)" opacity="0.96"></rect><rect width="594" height="1" x="422" y="462.5" rx="0.5" transform="rotate(144, 719, 463)" opacity="0.57"></rect><rect width="234" height="1" x="113" y="61.5" rx="0.5" transform="rotate(144, 230, 62)" opacity="0.48"></rect><rect width="186" height="1" x="480" y="97.5" rx="0.5" transform="rotate(144, 573, 98)" opacity="0.11"></rect><rect width="299" height="1" x="-37.5" y="284.5" rx="0.5" transform="rotate(144, 112, 285)" opacity="0.07"></rect><rect width="240" height="1" x="-58" y="574.5" rx="0.5" transform="rotate(144, 62, 575)" opacity="0.23"></rect><rect width="447" height="1" x="37.5" y="543.5" rx="0.5" transform="rotate(144, 261, 544)" opacity="0.50"></rect><rect width="216" height="1" x="48" y="725.5" rx="0.5" transform="rotate(144, 156, 726)" opacity="0.32"></rect><rect width="579" height="1" x="-199.5" y="118.5" rx="0.5" transform="rotate(144, 90, 119)" opacity="0.12"></rect></g></svg>